P2
3 2
255
100 200 50
150 75 180